
        <svg xmlns="http://www.w3.org/2000/svg" xmlns:xlink="http://www.w3.org/1999/xlink" version="1.1" width="3171.4285714285716" 
        height="665.5997781297062" viewBox="0 0 3171.4285714285716 665.5997781297062">
			<rect fill="#7405fb" width="3171.4285714285716" height="665.5997781297062"/>
			<g transform="scale(8.571428571428571) translate(10, 10)">
				<defs id="SvgjsDefs1018"></defs><g id="SvgjsG1019" featureKey="K5GtsI-0" transform="matrix(3.797808613963606,0,0,3.797808613963606,-2.6330578695756666,-19.656432845060763)" fill="#ffffff"><path d="M11.123 13.6719 l0.97656 0 l-0.12695 0.5957 l-5.0391 0 l-1.3281 5.7715 l-4.9121 0 l1.4844 -6.3672 l-0.99609 0 l1.9043 -8.2422 l10.371 0 l-0.85938 3.7012 l-5.459 0 l-0.3418 1.4355 l5.0293 0 z M18.5254 13.6719 l-1.4648 6.3672 l-4.9414 0 l1.4648 -6.3672 l-0.99609 0 l1.9141 -8.2422 l4.9316 0 l-1.8945 8.2422 l0.98633 0 z M28.18371875 13.3594 l-1.4844 6.6797 l-4.9512 0 l1.5234 -6.6797 l-0.88867 0 l0.98633 -4.2773 l-3.9063 0 l0.85938 -3.7012 l12.676 0 l-0.83008 3.7012 l-3.8965 0 l-0.95703 4.2773 l0.86914 0 z M36.093721875 13.6328 l1.1133 0 c-0.17578 2.3535 1.4258 4.1211 5.9375 1.2207 l1.4648 0 l-0.91797 3.9844 c-4.9512 2.8516 -12.295 1.9922 -11.221 -5.2051 l-1.1035 0 c0.058594 -0.26367 0.11719 -0.57617 0.19531 -0.91797 c0.99609 -4.3652 4.3262 -7.5391 8.9648 -7.5391 c2.5586 0 4.0332 0.73242 4.9121 1.3379 l-0.94727 4.082 l-1.5723 0 c-3.5352 -3.8086 -6.5918 0.078125 -6.8262 3.0371 z M46.152315625 13.3594 l-0.88867 0 l1.8164 -7.9785 c1.6992 0 4.7656 -0.16602 7.1875 0.15625 c2.1387 0.3125 4.209 1.1035 3.8477 3.6719 c-0.20508 1.5527 -1.3965 3.1445 -2.6855 4.1504 l0.87891 0 c-0.23438 0.17578 -0.46875 0.36133 -0.72266 0.48828 l3.3398 6.1914 l-5.8594 0 l-2.4414 -4.7754 l-1.084 4.7754 l-4.9219 0 z M51.191415625 8.994 l-0.5957 2.5195 c2.3535 0 3.6719 -2.5195 0.5957 -2.5195 z M60.673825 13.6719 l-0.99609 0 l1.9141 -8.2422 l10.459 0 l-0.83984 3.7012 l-5.5762 0 l-0.29297 1.25 l5.127 0 l-0.75195 3.291 l0.99609 0 l-0.087891 0.39063 l-5.1367 0 l-0.51758 2.2852 l5.5566 0 l-0.83984 3.6914 l-10.479 0 z M89.9706875 13.3594 l-3.1445 6.6797 l-5.0195 0 l-0.15625 -5.459 c-0.86914 1.7871 -1.7773 3.6328 -2.5977 5.459 l-5.0293 0 l-0.097656 -6.6797 l-0.88867 0 l-0.14648 -7.9785 l5.0977 0 l-0.13672 5.7715 c0.88867 -1.9043 1.8164 -3.8574 2.7344 -5.7715 l4.6973 0 l0 5.7715 c0.87891 -1.9043 1.709 -3.8574 2.5684 -5.7715 l5 0 l-3.7695 7.9785 l0.88867 0 z"></path></g>
			</g>
		</svg>
	